# xmcd CD database file
# Copyright (C) 1993-1998 Ti Kan
# 
# Track frame offsets:
#     182
#     11917
#     26315
#     38637
#     53300
#     64880
#     80105
#     93810
#     103972
#     118790
#     133515
#     146017
#     159505
#     172122
#     183637
#     198400
#     211292
# 
# Disc length: 3039 seconds
# 
# Revision: 1
# Processed by: cddbd v1.4b41PL1 Copyright (c) Steve Scherf et al.
# Submitted via: DiscPlay 4.0.4
# 
DISCID=ed0bdd11
DTITLE=Louis Armstrong - Gospel 1931-1941
DYEAR=1900
DGENRE=
TTITLE0=Shadrack
TTITLE1=Nobody Knows The Trouble I've Seen
TTITLE2=When The Saints Go Marchin' In
TTITLE3=Dear Old Southland
TTITLE4=Old Man Mose
TTITLE5=Lawd, You Made The Night Too Long
TTITLE6=I'll Get Mine Bye And Bye
TTITLE7=As Long As You Live
TTITLE8=Now You Call That A Buddy
TTITLE9=I Hope Gabriel Likes My Music
TTITLE10=Going To Shout All Over God's Heaven
TTITLE11=Cain And Abel
TTITLE12=Jonah And The Whale
TTITLE13=Bye And Bye
TTITLE14=When It's Sleepy Time Down South
TTITLE15=Shadrack
TTITLE16=Nobody Knows The Troble I've Seen
EXTD=
EXTT0=
EXTT1=
EXTT2=
EXTT3=
EXTT4=
EXTT5=
EXTT6=
EXTT7=
EXTT8=
EXTT9=
EXTT10=
EXTT11=
EXTT12=
EXTT13=
EXTT14=
EXTT15=
EXTT16=
PLAYORDER=
